<?xml version="1.0" standalone="no"?>
<!DOCTYPE svg PUBLIC "-//W3C//DTD SVG 20010904//EN"
 "http://www.w3.org/TR/2001/REC-SVG-20010904/DTD/svg10.dtd">
<svg version="1.0" xmlns="http://www.w3.org/2000/svg"
 width="512.000000pt" height="512.000000pt" viewBox="0 0 512.000000 512.000000"
 preserveAspectRatio="xMidYMid meet">
<metadata>
Created by potrace 1.11, written by Peter Selinger 2001-2013
</metadata>
<g transform="translate(0.000000,512.000000) scale(0.100000,-0.100000)"
fill="#000000" stroke="none">
<path d="M3008 4545 c-2 -2 -25 -7 -51 -10 -55 -7 -89 -23 -133 -64 -27 -26
-42 -31 -95 -36 -35 -3 -74 -7 -85 -9 -12 -2 -37 -7 -55 -10 -95 -16 -232 -50
-253 -63 -6 -4 -15 -8 -21 -9 -56 -10 -336 -137 -343 -156 -2 -4 -8 -8 -13 -8
-12 0 -93 -52 -97 -63 -2 -4 -7 -5 -11 -2 -5 2 -19 -7 -31 -20 -13 -14 -28
-25 -33 -25 -5 0 -20 -11 -33 -26 -13 -14 -24 -23 -24 -20 0 14 -212 -193
-262 -255 -15 -19 -39 -49 -55 -68 -15 -18 -28 -36 -28 -39 0 -4 -12 -20 -27
-36 -15 -16 -25 -33 -22 -38 3 -4 1 -8 -5 -8 -5 0 -26 -28 -46 -62 -20 -35
-47 -81 -60 -103 -31 -49 -97 -187 -125 -260 -4 -11 -13 -33 -21 -50 -7 -16
-13 -32 -14 -35 -2 -9 -36 -115 -42 -130 -4 -8 -7 -18 -8 -22 -2 -5 -3 -9 -5
-10 -4 -6 -12 -44 -14 -65 0 -13 -4 -23 -7 -23 -4 0 -10 -17 -14 -37 -5 -21
-10 -42 -11 -48 -28 -94 -77 -361 -90 -490 -11 -113 -20 -141 -70 -211 -27
-38 -54 -75 -61 -82 -6 -6 -15 -21 -18 -32 -3 -11 -11 -20 -16 -20 -5 0 -9 -7
-9 -15 0 -8 -4 -15 -10 -15 -5 0 -10 -7 -10 -17 0 -9 -3 -13 -6 -10 -4 4 -14
-7 -23 -23 -44 -80 -104 -170 -113 -170 -6 0 -8 -6 -5 -14 3 -8 2 -16 -2 -18
-11 -4 -81 -114 -81 -128 0 -5 -5 -10 -11 -10 -5 0 -7 -4 -4 -10 3 -5 3 -10
-2 -10 -4 0 -19 -21 -33 -47 -13 -27 -27 -50 -30 -53 -3 -3 -14 -23 -25 -45
-10 -22 -28 -52 -38 -67 -10 -16 -15 -28 -10 -28 4 0 3 -4 -2 -8 -13 -9 -61
-104 -58 -114 2 -4 -1 -8 -6 -8 -5 0 -13 -9 -16 -21 -4 -12 -18 -45 -31 -75
-13 -30 -23 -56 -21 -58 1 -1 -4 -10 -12 -19 -7 -10 -11 -17 -7 -17 4 0 -2
-17 -13 -39 -11 -21 -18 -41 -15 -44 3 -3 -1 -20 -8 -38 -20 -49 -22 -151 -4
-194 9 -20 20 -34 25 -31 5 4 12 2 16 -4 15 -24 122 16 201 76 73 54 298 287
335 345 3 5 18 10 35 12 16 2 34 6 39 8 6 3 27 5 47 5 21 -1 38 1 38 4 0 7
140 10 425 9 11 0 35 -4 53 -9 20 -5 32 -5 32 1 0 6 6 7 13 2 6 -4 17 -8 22
-9 6 -1 28 -5 49 -8 21 -4 51 -9 65 -13 14 -3 35 -7 46 -8 11 -1 27 -5 35 -8
13 -5 82 -21 131 -31 8 -2 21 -5 29 -8 8 -3 35 -11 60 -18 25 -8 90 -28 145
-47 55 -18 109 -36 120 -38 11 -3 29 -9 40 -14 55 -25 94 -41 100 -41 7 0 24
-7 117 -49 26 -11 50 -21 52 -21 2 0 25 -10 52 -22 27 -12 51 -23 54 -23 3 -1
19 -8 35 -15 17 -7 32 -14 35 -15 3 -1 25 -10 50 -22 141 -65 189 -86 196 -84
4 2 10 -1 13 -6 5 -7 52 -32 71 -38 3 -1 30 -14 60 -28 30 -15 61 -27 68 -27
6 0 12 -4 12 -10 0 -5 6 -10 14 -10 8 0 31 -9 53 -20 36 -18 60 -29 207 -94
32 -14 65 -26 72 -26 8 0 14 -4 14 -10 0 -5 3 -9 8 -9 4 1 9 0 12 -1 3 -1 13
-3 23 -6 9 -2 25 -6 35 -8 9 -3 17 -5 17 -6 0 -1 7 -3 15 -5 8 -1 33 -8 55
-13 22 -6 55 -14 74 -17 19 -3 38 -8 43 -11 4 -3 8 -1 8 3 0 5 15 9 33 10 82
2 133 30 229 125 46 46 104 110 128 143 25 33 51 66 58 73 6 7 12 20 12 28 0
8 5 14 10 14 6 0 10 5 10 11 0 6 8 23 19 37 38 55 212 386 226 433 4 13 14 29
21 37 8 7 12 18 9 23 -9 13 10 14 61 4 147 -28 282 -25 399 9 64 19 96 45 101
81 1 6 3 12 4 15 1 3 3 21 4 40 2 19 5 42 9 50 5 14 12 67 23 175 3 28 7 61 9
75 9 50 19 208 19 322 1 65 4 118 7 118 3 0 5 33 3 72 -11 243 -14 310 -18
316 -2 4 -7 32 -11 62 -12 104 -22 162 -35 205 -5 17 -10 41 -12 55 -2 14 -6
27 -10 30 -4 3 -9 19 -12 35 -2 17 -5 30 -5 30 -5 0 -57 165 -52 165 3 0 0 4
-7 9 -7 4 -15 14 -16 22 -2 8 -8 25 -14 39 -31 73 -35 86 -34 93 1 4 -2 7 -7
7 -8 0 -24 37 -22 53 1 4 -3 7 -9 7 -5 0 -10 5 -10 12 0 23 -185 328 -230 380
-8 9 -26 31 -40 49 -14 17 -37 45 -52 60 -15 16 -25 29 -22 29 8 0 -136 142
-198 195 -67 59 -88 75 -93 75 -5 0 -37 25 -60 48 -8 6 -18 12 -23 12 -6 0
-12 3 -14 8 -5 11 -92 67 -100 64 -5 -1 -8 3 -8 8 0 6 -5 10 -12 10 -6 0 -19
6 -27 14 -44 39 -325 164 -404 180 -21 5 -72 18 -87 22 -8 3 -16 5 -17 6 -2 0
-34 8 -72 18 -39 10 -72 15 -75 12 -4 -3 -6 2 -6 11 0 10 -5 17 -11 17 -5 0
-8 4 -4 9 3 5 1 12 -5 16 -6 4 -7 12 -4 18 4 7 4 9 -1 5 -5 -5 -15 1 -22 12
-8 11 -18 18 -23 15 -4 -3 -10 0 -12 5 -2 6 -12 13 -23 15 -11 2 -21 4 -22 5
-2 2 -7 4 -13 5 -5 1 -11 4 -12 5 -2 2 -17 3 -33 4 -17 1 -36 5 -41 9 -6 3
-13 4 -16 2z"/>
</g>
</svg>
